<?xml version="1.0" encoding="UTF-8"?>
<svg version="1.1" xmlns="http://www.w3.org/2000/svg" width="425" height="131">
<path d="M0 0 C140.25 0 280.5 0 425 0 C425 30.36 425 60.72 425 92 C388.875047 92.04030303 388.875047 92.04030303 373.48632812 92.04882812 C362.95027162 92.05471257 352.41422323 92.06154634 341.87817383 92.07543945 C334.19752167 92.08556234 326.51687623 92.09189415 318.83621758 92.09408849 C314.78793674 92.09536651 310.73967507 92.09825889 306.69140053 92.10573006 C283.77784141 92.14639466 260.90198185 91.73332757 238 91 C238 90.01 238 89.02 238 88 C255.78912814 87.97634173 273.57825117 87.95886294 291.36739159 87.94818783 C299.63246571 87.94309321 307.89752992 87.93618601 316.16259766 87.92456055 C323.39026638 87.91439936 330.61792791 87.90809736 337.84560359 87.90591151 C342.28548959 87.90442744 346.72534542 87.89996327 351.16522098 87.88999641 C374.80275412 87.8579145 398.35341701 88.43698612 422 89 C422 60.62 422 32.24 422 3 C283.73 3 145.46 3 3 3 C3 31.05 3 59.1 3 88 C53.16 88 103.32 88 155 88 C155 88.99 155 89.98 155 91 C103.85 91 52.7 91 0 91 C0 60.97 0 30.94 0 0 Z " fill="#FBB554" transform="translate(0,0)"/>
<path d="M0 0 C31.97821859 -0.04030303 31.97821859 -0.04030303 45.35351562 -0.04882812 C54.59774326 -0.05476739 63.84196179 -0.06175873 73.08618164 -0.07543945 C79.81795991 -0.08539722 86.54973082 -0.09185604 93.28151625 -0.09408849 C96.84693067 -0.09539374 100.41232403 -0.09846786 103.9777317 -0.10573006 C107.95496647 -0.1137656 111.9321805 -0.11399043 115.90942383 -0.11352539 C117.09553253 -0.11712067 118.28164124 -0.12071594 119.50369263 -0.12442017 C121.12539619 -0.12235817 121.12539619 -0.12235817 122.77986145 -0.12025452 C124.19158741 -0.12163721 124.19158741 -0.12163721 125.63183308 -0.12304783 C128 0 128 0 131 1 C132.91765594 1.14939774 134.83946522 1.24810283 136.76171875 1.31640625 C138.43911133 1.37924805 138.43911133 1.37924805 140.15039062 1.44335938 C141.31763672 1.48267578 142.48488281 1.52199219 143.6875 1.5625 C144.86634766 1.60568359 146.04519531 1.64886719 147.25976562 1.69335938 C150.17305883 1.79951176 153.08643757 1.90156242 156 2 C156 2.33 156 2.66 156 3 C105.51 3 55.02 3 3 3 C3 31.05 3 59.1 3 88 C53.16 88 103.32 88 155 88 C155 88.99 155 89.98 155 91 C103.85 91 52.7 91 0 91 C0 60.97 0 30.94 0 0 Z " fill="#E03894" transform="translate(0,0)"/>
<path d="M0 0 C137.61 0 275.22 0 417 0 C417 27.72 417 55.44 417 84 C406.11 84 395.22 84 384 84 C384 83.67 384 83.34 384 83 C394.56 83 405.12 83 416 83 C416 55.94 416 28.88 416 1 C279.05 1 142.1 1 1 1 C1 27.73 1 54.46 1 82 C50.5 82 100 82 151 82 C151 82.33 151 82.66 151 83 C101.17 83 51.34 83 0 83 C0 55.61 0 28.22 0 0 Z " fill="#FB8678" transform="translate(4,4)"/>
<path d="M0 0 C63.36 0 126.72 0 192 0 C192 0.33 192 0.66 192 1 C183.70635304 3.13730931 175.64572972 3.27916643 167.12475586 3.24291992 C165.64662085 3.24399508 164.16848626 3.24593722 162.69035339 3.24867249 C158.69761658 3.25349303 154.70499272 3.24589482 150.71226954 3.23571944 C146.50126086 3.22686604 142.29025498 3.22869797 138.07923889 3.2290802 C130.99380639 3.2281451 123.90841682 3.21949127 116.82299805 3.20581055 C108.69807117 3.19017791 100.57319155 3.18480948 92.44825071 3.1855461 C83.72693158 3.18622936 75.00563004 3.17923561 66.2843163 3.1700995 C63.80880046 3.16799549 61.33328757 3.16726205 58.85777092 3.16686058 C43.71860853 3.16197811 28.58347432 3.13119662 13.45141602 2.61450195 C11.90600962 2.56918854 11.90600962 2.56918854 10.3293829 2.52295971 C9.39698064 2.48507493 8.46457838 2.44719015 7.50392151 2.40815735 C6.29801282 2.36262962 6.29801282 2.36262962 5.06774235 2.31618214 C3 2 3 2 0 0 Z " fill="#EA6C78" transform="translate(128,0)"/>
<path d="M0 0 C0.71671875 -0.02900391 1.4334375 -0.05800781 2.171875 -0.08789062 C5.84275338 -0.13175222 8.05519273 0.19765284 11.23828125 2.07421875 C13.25 4.3125 13.25 4.3125 13.80859375 6.3828125 C13.47222222 12.09027778 13.47222222 12.09027778 11.25 14.3125 C11.91 15.01375 12.57 15.715 13.25 16.4375 C15.59485971 19.80823583 15.76301839 21.29385598 15.25 25.3125 C14.04293121 28.65515205 13.32943151 29.25954566 10.25 31.3125 C6.6910056 32.24688482 3.29633558 32.47471532 -0.375 32.5 C-1.31601562 32.51417969 -2.25703125 32.52835938 -3.2265625 32.54296875 C-5.75 32.3125 -5.75 32.3125 -8.75 30.3125 C-9.10644531 27.43920898 -9.10644531 27.43920898 -9.078125 23.80859375 C-9.07296875 22.51115234 -9.0678125 21.21371094 -9.0625 19.87695312 C-9.0521875 19.20027588 -9.041875 18.52359863 -9.03125 17.82641602 C-9.00006828 15.75453718 -8.99027769 13.68341842 -8.984375 11.61132812 C-8.89292673 0.11742421 -8.89292673 0.11742421 0 0 Z M-3.75 4.3125 C-3.75 7.2825 -3.75 10.2525 -3.75 13.3125 C-0.45 13.3125 2.85 13.3125 6.25 13.3125 C6.25 12.9825 6.25 12.6525 6.25 12.3125 C3.28 12.3125 0.31 12.3125 -2.75 12.3125 C-2.75 9.6725 -2.75 7.0325 -2.75 4.3125 C-3.08 4.3125 -3.41 4.3125 -3.75 4.3125 Z M-1.75 5.3125 C-1.75 5.6425 -1.75 5.9725 -1.75 6.3125 C1.22 6.3125 4.19 6.3125 7.25 6.3125 C7.25 5.9825 7.25 5.6525 7.25 5.3125 C4.28 5.3125 1.31 5.3125 -1.75 5.3125 Z M7.25 6.3125 C6.92 8.2925 6.59 10.2725 6.25 12.3125 C6.91 12.3125 7.57 12.3125 8.25 12.3125 C8.25 10.3325 8.25 8.3525 8.25 6.3125 C7.92 6.3125 7.59 6.3125 7.25 6.3125 Z M-1.75 7.3125 C-1.75 8.6325 -1.75 9.9525 -1.75 11.3125 C0.89 11.3125 3.53 11.3125 6.25 11.3125 C6.25 9.9925 6.25 8.6725 6.25 7.3125 C3.61 7.3125 0.97 7.3125 -1.75 7.3125 Z M-3.75 17.3125 C-3.75 20.6125 -3.75 23.9125 -3.75 27.3125 C-0.12 27.3125 3.51 27.3125 7.25 27.3125 C7.25 26.9825 7.25 26.6525 7.25 26.3125 C3.95 26.3125 0.65 26.3125 -2.75 26.3125 C-2.75 23.3425 -2.75 20.3725 -2.75 17.3125 C-3.08 17.3125 -3.41 17.3125 -3.75 17.3125 Z M-1.75 18.3125 C-1.75 20.6225 -1.75 22.9325 -1.75 25.3125 C0.06181405 25.50651633 1.87448532 25.69254375 3.6875 25.875 C4.69683594 25.97941406 5.70617187 26.08382812 6.74609375 26.19140625 C7.98552734 26.25134766 7.98552734 26.25134766 9.25 26.3125 C9.58 25.9825 9.91 25.6525 10.25 25.3125 C9.96269945 22.97305264 9.63063221 20.6385857 9.25 18.3125 C5.62 18.3125 1.99 18.3125 -1.75 18.3125 Z " fill="#000000" transform="translate(20.75,24.6875)"/>
<path d="M0 0 C1.70680947 1.62553283 3.37660195 3.29115995 5 5 C6.66014616 5.36442233 8.32706064 5.69972883 10 6 C12.55041543 7.98365645 13.77674484 9.4195366 14.9375 12.4375 C15.02071356 15.84925594 14.05370958 17.30893227 12 20 C7.49913464 23.93825719 3.24972402 24.41138689 -2.55859375 24.34375 C-5 24 -5 24 -7.9375 21.875 C-12.11720133 16.04874967 -13.79121941 12.12097473 -13 5 C-9.23871279 -0.8926833 -6.75895092 -1.60381886 0 0 Z " fill="#DE4488" transform="translate(195,74)"/>
<path d="M0 0 C0.33 0 0.66 0 1 0 C1 3.63 1 7.26 1 11 C51.16 11 101.32 11 153 11 C153 11.99 153 12.98 153 14 C101.85 14 50.7 14 -2 14 C-2 13.01 -2 12.02 -2 11 C-1.34 11 -0.68 11 0 11 C0 7.37 0 3.74 0 0 Z " fill="#E8508A" transform="translate(2,77)"/>
<path d="M0 0 C0.71671875 -0.02900391 1.4334375 -0.05800781 2.171875 -0.08789062 C5.9215358 -0.13269356 8.01942856 0.16458049 11.203125 2.20703125 C13.88686036 4.9675911 14.21130227 5.79008066 14.5 9.6875 C14.24195908 13.42909328 13.78752812 14.66924154 11.25 17.3125 C11.91 18.3025 12.57 19.2925 13.25 20.3125 C13.69111565 22.19404883 14.0609267 24.09312638 14.375 26 C14.54257812 26.99386719 14.71015625 27.98773438 14.8828125 29.01171875 C15.00398438 29.77097656 15.12515625 30.53023437 15.25 31.3125 C13.6 30.9825 11.95 30.6525 10.25 30.3125 C8.25 23.6875 8.25 23.6875 8.25 20.3125 C7.59 20.6425 6.93 20.9725 6.25 21.3125 C3.5776379 21.44665472 0.92749512 21.35568541 -1.75 21.3125 C-1.75 24.2825 -1.75 27.2525 -1.75 30.3125 C-4.06 30.6425 -6.37 30.9725 -8.75 31.3125 C-8.77465622 27.05835377 -8.79283899 22.80424502 -8.80493164 18.55004883 C-8.80997101 17.10179927 -8.81680253 15.65355483 -8.82543945 14.20532227 C-8.83752247 12.12775412 -8.84323211 10.05025303 -8.84765625 7.97265625 C-8.85289307 6.72105713 -8.85812988 5.46945801 -8.86352539 4.17993164 C-8.64265599 -1.39880198 -4.55560437 0.06015323 0 0 Z M-3.75 4.3125 C-3.75 7.2825 -3.75 10.2525 -3.75 13.3125 C-3.42 13.3125 -3.09 13.3125 -2.75 13.3125 C-2.75 10.3425 -2.75 7.3725 -2.75 4.3125 C-3.08 4.3125 -3.41 4.3125 -3.75 4.3125 Z M-1.75 4.3125 C-1.75 4.9725 -1.75 5.6325 -1.75 6.3125 C1.55 6.3125 4.85 6.3125 8.25 6.3125 C4.6058226 3.8830484 2.53758728 4.15070425 -1.75 4.3125 Z M8.25 6.3125 C8.25 8.2925 8.25 10.2725 8.25 12.3125 C8.58 12.3125 8.91 12.3125 9.25 12.3125 C9.25 10.3325 9.25 8.3525 9.25 6.3125 C8.92 6.3125 8.59 6.3125 8.25 6.3125 Z M-1.75 7.3125 C-1.75 9.2925 -1.75 11.2725 -1.75 13.3125 C1.55 13.6425 4.85 13.9725 8.25 14.3125 C7.92 12.0025 7.59 9.6925 7.25 7.3125 C4.28 7.3125 1.31 7.3125 -1.75 7.3125 Z M-4.75 14.3125 C-4.75 14.6425 -4.75 14.9725 -4.75 15.3125 C-1.12 15.3125 2.51 15.3125 6.25 15.3125 C6.25 14.9825 6.25 14.6525 6.25 14.3125 C2.62 14.3125 -1.01 14.3125 -4.75 14.3125 Z M-4.75 19.3125 C-4.75 19.6425 -4.75 19.9725 -4.75 20.3125 C-1.12 20.3125 2.51 20.3125 6.25 20.3125 C6.25 19.9825 6.25 19.6525 6.25 19.3125 C2.62 19.3125 -1.01 19.3125 -4.75 19.3125 Z " fill="#000000" transform="translate(276.75,24.6875)"/>
<path d="M0 0 C0.70833984 -0.02900391 1.41667969 -0.05800781 2.14648438 -0.08789062 C7.3203046 -0.14999558 10.22336497 0.8874651 14.3125 4.3125 C17.60535535 9.80059224 18.07574073 14.98701179 17.3125 21.3125 C15.65405601 26.02597239 13.5125036 28.61249768 9.3125 31.3125 C5.71646948 32.24345206 2.33083229 32.44761141 -1.375 32.4375 C-2.80392578 32.44136719 -2.80392578 32.44136719 -4.26171875 32.4453125 C-6.6875 32.3125 -6.6875 32.3125 -8.6875 31.3125 C-8.71215622 27.05835377 -8.73033899 22.80424502 -8.74243164 18.55004883 C-8.74747101 17.10179927 -8.75430253 15.65355483 -8.76293945 14.20532227 C-8.77502247 12.12775412 -8.78073211 10.05025303 -8.78515625 7.97265625 C-8.79039307 6.72105713 -8.79562988 5.46945801 -8.80102539 4.17993164 C-8.58089174 -1.38021839 -4.54587538 0.06039693 0 0 Z M-3.6875 4.3125 C-3.6875 11.2425 -3.6875 18.1725 -3.6875 25.3125 C-1.769375 25.539375 0.14875 25.76625 2.125 26 C3.20394531 26.12761719 4.28289062 26.25523438 5.39453125 26.38671875 C8.3006685 26.59301793 8.3006685 26.59301793 10.13671875 24.95703125 C13.15550141 20.73474719 12.73966832 16.33568305 12.3125 11.3125 C10.93797109 7.64708957 10.0865651 6.68194016 6.5625 5 C2.72474544 4.07104831 2.72474544 4.07104831 -3.6875 4.3125 Z M-4.6875 26.3125 C-4.6875 26.6425 -4.6875 26.9725 -4.6875 27.3125 C-1.0575 27.3125 2.5725 27.3125 6.3125 27.3125 C6.3125 26.9825 6.3125 26.6525 6.3125 26.3125 C2.6825 26.3125 -0.9475 26.3125 -4.6875 26.3125 Z " fill="#000000" transform="translate(346.6875,24.6875)"/>
<path d="M0 0 C6.27 0 12.54 0 19 0 C19 1.32 19 2.64 19 4 C15.79984144 5.06671952 14.11455706 4.94845472 10.8125 4.5625 C9.91144531 4.46066406 9.01039062 4.35882812 8.08203125 4.25390625 C7.39496094 4.17011719 6.70789062 4.08632813 6 4 C6 4.66 6 5.32 6 6 C9.63 6 13.26 6 17 6 C17 6.33 17 6.66 17 7 C13.37 7 9.74 7 6 7 C6 8.32 6 9.64 6 11 C9.63 11 13.26 11 17 11 C17 11.33 17 11.66 17 12 C16.14535156 11.98839844 15.29070313 11.97679687 14.41015625 11.96484375 C12.75306641 11.95130859 12.75306641 11.95130859 11.0625 11.9375 C9.40927734 11.92009766 9.40927734 11.92009766 7.72265625 11.90234375 C5.08552366 11.68737429 5.08552366 11.68737429 4 13 C8.29 13 12.58 13 17 13 C17.33 13.99 17.66 14.98 18 16 C17.34 17.32 16.68 18.64 16 20 C12.7 20 9.4 20 6 20 C6 21.65 6 23.3 6 25 C10.29 25 14.58 25 19 25 C19 25.33 19 25.66 19 26 C18.00097656 25.98839844 17.00195312 25.97679688 15.97265625 25.96484375 C14.68230469 25.95582031 13.39195313 25.94679688 12.0625 25.9375 C10.77472656 25.92589844 9.48695312 25.91429688 8.16015625 25.90234375 C5.13701597 25.63467451 5.13701597 25.63467451 4 27 C8.95 27 13.9 27 19 27 C19 28.32 19 29.64 19 31 C15.45910606 32.08749814 12.1292914 32.16650005 8.4375 32.1875 C7.30183594 32.20167969 6.16617188 32.21585938 4.99609375 32.23046875 C2 32 2 32 -1 30 C-1.35644531 27.234375 -1.35644531 27.234375 -1.328125 23.75 C-1.32296875 22.5021875 -1.3178125 21.254375 -1.3125 19.96875 C-1.291875 18.6590625 -1.27125 17.349375 -1.25 16 C-1.24484375 14.6903125 -1.2396875 13.380625 -1.234375 12.03125 C-1.15401786 2.30803571 -1.15401786 2.30803571 0 0 Z " fill="#000000" transform="translate(41,25)"/>
<path d="M0 0 C0.74886475 0.00523682 1.49772949 0.01047363 2.26928711 0.01586914 C3.07817383 0.0190918 3.88706055 0.02231445 4.72045898 0.02563477 C5.5705957 0.03401367 6.42073242 0.04239258 7.29663086 0.05102539 C8.15063477 0.05553711 9.00463867 0.06004883 9.88452148 0.06469727 C12.00108749 0.07652166 14.11761771 0.0944577 16.23413086 0.11352539 C16.56413086 1.43352539 16.89413086 2.75352539 17.23413086 4.11352539 C14.0339723 5.18024491 12.34868792 5.06198011 9.04663086 4.67602539 C8.14557617 4.57418945 7.24452148 4.47235352 6.31616211 4.36743164 C5.6290918 4.28364258 4.94202148 4.19985352 4.23413086 4.11352539 C4.23413086 4.77352539 4.23413086 5.43352539 4.23413086 6.11352539 C7.86413086 6.11352539 11.49413086 6.11352539 15.23413086 6.11352539 C15.23413086 6.44352539 15.23413086 6.77352539 15.23413086 7.11352539 C11.60413086 7.11352539 7.97413086 7.11352539 4.23413086 7.11352539 C4.23413086 8.43352539 4.23413086 9.75352539 4.23413086 11.11352539 C7.53413086 11.11352539 10.83413086 11.11352539 14.23413086 11.11352539 C14.23413086 11.44352539 14.23413086 11.77352539 14.23413086 12.11352539 C13.06043945 12.09612305 13.06043945 12.09612305 11.86303711 12.07836914 C10.85112305 12.0693457 9.83920898 12.06032227 8.79663086 12.05102539 C7.28262695 12.03362305 7.28262695 12.03362305 5.73803711 12.01586914 C3.29392019 11.82739863 3.29392019 11.82739863 2.23413086 13.11352539 C6.19413086 13.11352539 10.15413086 13.11352539 14.23413086 13.11352539 C14.56413086 14.43352539 14.89413086 15.75352539 15.23413086 17.11352539 C14.57413086 17.44352539 13.91413086 17.77352539 13.23413086 18.11352539 C13.56413086 18.77352539 13.89413086 19.43352539 14.23413086 20.11352539 C10.93413086 20.11352539 7.63413086 20.11352539 4.23413086 20.11352539 C4.23413086 21.76352539 4.23413086 23.41352539 4.23413086 25.11352539 C8.19413086 25.11352539 12.15413086 25.11352539 16.23413086 25.11352539 C16.23413086 25.44352539 16.23413086 25.77352539 16.23413086 26.11352539 C15.30729492 26.10192383 14.38045898 26.09032227 13.42553711 26.07836914 C11.62922852 26.06483398 11.62922852 26.06483398 9.79663086 26.05102539 C8.60166992 26.03942383 7.40670898 26.02782227 6.17553711 26.01586914 C3.34539745 25.77450747 3.34539745 25.77450747 2.23413086 27.11352539 C6.85413086 27.11352539 11.47413086 27.11352539 16.23413086 27.11352539 C16.56413086 28.43352539 16.89413086 29.75352539 17.23413086 31.11352539 C14.21551322 32.62283421 11.10421783 32.29791383 7.79663086 32.30102539 C7.11536133 32.31327148 6.4340918 32.32551758 5.73217773 32.33813477 C2.00583276 32.34908387 0.41421515 32.23358158 -2.76586914 30.11352539 C-3.12231445 27.24023438 -3.12231445 27.24023438 -3.09399414 23.60961914 C-3.08883789 22.31217773 -3.08368164 21.01473633 -3.07836914 19.67797852 C-3.06805664 19.00130127 -3.05774414 18.32462402 -3.04711914 17.62744141 C-3.01593742 15.55556257 -3.00614683 13.48444381 -3.00024414 11.41235352 C-2.91093364 0.18714007 -2.91093364 0.18714007 0 0 Z " fill="#000000" transform="translate(245.765869140625,24.886474609375)"/>
<path d="M0 0 C2.701875 -0.0825 5.40375 -0.165 8.1875 -0.25 C9.02949951 -0.28641602 9.87149902 -0.32283203 10.73901367 -0.36035156 C14.67603679 -0.41837972 16.56872297 -0.27286024 19.98828125 1.890625 C22.39471802 4.41387909 22.94125611 5.33913121 23.25 8.8125 C22.97212427 12.35541555 22.02619474 14.12955745 20 17 C20.66 17.99 21.32 18.98 22 20 C22.38063221 22.3260857 22.71269945 24.66055264 23 27 C23.30903983 28.33917261 23.62942911 29.67653254 24 31 C21.625 30.75 21.625 30.75 19 30 C16.37238741 26.62164095 17 24.60451957 17 20 C12.71 19.67 8.42 19.34 4 19 C4 22.96 4 26.92 4 31 C2.68 31 1.36 31 0 31 C0 20.77 0 10.54 0 0 Z M4 4 C4 7.63 4 11.26 4 15 C7.63 15 11.26 15 15 15 C15 14.67 15 14.34 15 14 C11.7 14 8.4 14 5 14 C5 10.7 5 7.4 5 4 C4.67 4 4.34 4 4 4 Z M6 4 C6 6.97 6 9.94 6 13 C9.63 13.33 13.26 13.66 17 14 C18.04214691 9.38492226 18.04214691 9.38492226 17 5 C14.24921116 4.08307039 12.64051087 3.89113917 9.8125 3.9375 C8.554375 3.958125 7.29625 3.97875 6 4 Z " fill="#000000" transform="translate(144,25)"/>
<path d="M0 0 C0.74886475 0.00523682 1.49772949 0.01047363 2.26928711 0.01586914 C3.07817383 0.0190918 3.88706055 0.02231445 4.72045898 0.02563477 C5.5705957 0.03401367 6.42073242 0.04239258 7.29663086 0.05102539 C8.15063477 0.05553711 9.00463867 0.06004883 9.88452148 0.06469727 C12.00108749 0.07652166 14.11761771 0.0944577 16.23413086 0.11352539 C16.56413086 1.43352539 16.89413086 2.75352539 17.23413086 4.11352539 C12.94413086 4.11352539 8.65413086 4.11352539 4.23413086 4.11352539 C4.23413086 4.77352539 4.23413086 5.43352539 4.23413086 6.11352539 C7.86413086 6.11352539 11.49413086 6.11352539 15.23413086 6.11352539 C15.23413086 6.44352539 15.23413086 6.77352539 15.23413086 7.11352539 C11.60413086 7.11352539 7.97413086 7.11352539 4.23413086 7.11352539 C4.23413086 8.43352539 4.23413086 9.75352539 4.23413086 11.11352539 C7.53413086 11.11352539 10.83413086 11.11352539 14.23413086 11.11352539 C14.23413086 11.44352539 14.23413086 11.77352539 14.23413086 12.11352539 C13.06043945 12.09612305 13.06043945 12.09612305 11.86303711 12.07836914 C10.85112305 12.0693457 9.83920898 12.06032227 8.79663086 12.05102539 C7.28262695 12.03362305 7.28262695 12.03362305 5.73803711 12.01586914 C3.29392019 11.82739863 3.29392019 11.82739863 2.23413086 13.11352539 C6.19413086 13.11352539 10.15413086 13.11352539 14.23413086 13.11352539 C14.56413086 14.43352539 14.89413086 15.75352539 15.23413086 17.11352539 C12.58954707 18.43581729 10.55651785 18.21029733 7.60913086 18.17602539 C6.60624023 18.16700195 5.60334961 18.15797852 4.57006836 18.14868164 C3.79920898 18.13708008 3.02834961 18.12547852 2.23413086 18.11352539 C2.23413086 21.08352539 2.23413086 24.05352539 2.23413086 27.11352539 C6.85413086 27.11352539 11.47413086 27.11352539 16.23413086 27.11352539 C16.56413086 28.43352539 16.89413086 29.75352539 17.23413086 31.11352539 C14.21535821 32.62291171 11.103335 32.25718976 7.79663086 32.23852539 C7.11536133 32.24239258 6.4340918 32.24625977 5.73217773 32.25024414 C2.6276504 32.24416279 0.20084021 32.10242851 -2.76586914 31.11352539 C-2.79052536 26.85937916 -2.80870813 22.60527041 -2.82080078 18.35107422 C-2.82584015 16.90282467 -2.83267167 15.45458022 -2.84130859 14.00634766 C-2.85339161 11.92877951 -2.85910125 9.85127842 -2.86352539 7.77368164 C-2.86876221 6.52208252 -2.87399902 5.2704834 -2.87939453 3.98095703 C-2.72872857 0.17542635 -2.72872857 0.17542635 0 0 Z " fill="#000000" transform="translate(121.765869140625,24.886474609375)"/>
<path d="M0 0 C6.27 0 12.54 0 19 0 C19 1.32 19 2.64 19 4 C15.98509443 5.00496852 13.95818308 5.10335303 10.8125 5.0625 C9.91144531 5.05347656 9.01039063 5.04445313 8.08203125 5.03515625 C7.39496094 5.02355469 6.70789063 5.01195312 6 5 C5.67 6.98 5.34 8.96 5 11 C8.96 11 12.92 11 17 11 C17.33 12.65 17.66 14.3 18 16 C15.41073669 18.58926331 13.97294721 18.37398043 10.375 18.625 C9.37210938 18.69976562 8.36921875 18.77453125 7.3359375 18.8515625 C6.17964844 18.92503906 6.17964844 18.92503906 5 19 C5 20.98 5 22.96 5 25 C9.62 25 14.24 25 19 25 C19.33 26.65 19.66 28.3 20 30 C16.35433792 32.43044139 13.64363257 32.26310692 9.4375 32.1875 C8.75236328 32.18685547 8.06722656 32.18621094 7.36132812 32.18554688 C2.28135927 32.14067963 2.28135927 32.14067963 0 31 C0 20.77 0 10.54 0 0 Z " fill="#000000" transform="translate(190,25)"/>
<path d="M0 0 C1.32 0 2.64 0 4 0 C5.76571351 3.90571873 7.51060989 7.81987972 9.23681641 11.74316406 C9.82688022 13.07640336 10.42255475 14.40717416 11.02392578 15.73535156 C11.88761846 17.64546858 12.73071661 19.56356656 13.5703125 21.484375 C14.08352051 22.63647461 14.59672852 23.78857422 15.12548828 24.97558594 C16 28 16 28 15.15185547 30.40722656 C14.58168701 31.19564941 14.58168701 31.19564941 14 32 C10.39760962 28.86243419 10.0042756 28.02137798 9 23 C2.565 23.495 2.565 23.495 -4 24 C-4.433125 25.134375 -4.86625 26.26875 -5.3125 27.4375 C-5.869375 28.613125 -6.42625 29.78875 -7 31 C-7.99 31.33 -8.98 31.66 -10 32 C-11.39233431 27.46106402 -10.50993309 24.91680767 -8.69140625 20.60546875 C-8.19189453 19.40341797 -7.69238281 18.20136719 -7.17773438 16.96289062 C-6.63960488 15.70430649 -6.10118979 14.44584442 -5.5625 13.1875 C-5.02679781 11.91000649 -4.49227922 10.63201596 -3.95898438 9.35351562 C-2.65089049 6.23058879 -1.33090435 3.11325804 0 0 Z M1 9 C-0.32 12.3 -1.64 15.6 -3 19 C0.3 19 3.6 19 7 19 C5.68 15.7 4.36 12.4 3 9 C2.34 9 1.68 9 1 9 Z " fill="#000000" transform="translate(377,25)"/>
<path d="M0 0 C0.99 0 1.98 0 3 0 C3.2673999 0.63091553 3.5347998 1.26183105 3.81030273 1.91186523 C5.01687 4.7548115 6.22713352 7.59616928 7.4375 10.4375 C8.06881836 11.92733398 8.06881836 11.92733398 8.71289062 13.44726562 C9.11572266 14.39150391 9.51855469 15.33574219 9.93359375 16.30859375 C10.4913147 17.62041626 10.4913147 17.62041626 11.06030273 18.95874023 C11.83373192 20.94927315 11.83373192 20.94927315 13 22 C15.97 14.74 18.94 7.48 22 0 C23.32 0.33 24.64 0.66 26 1 C25.10941604 7.4515352 22.75603426 12.87069757 20.1875 18.8125 C19.74857422 19.87404297 19.30964844 20.93558594 18.85742188 22.02929688 C18.42365234 23.03669922 17.98988281 24.04410156 17.54296875 25.08203125 C17.15133545 26.00218018 16.75970215 26.9223291 16.35620117 27.87036133 C15 30 15 30 12.84106445 30.80737305 C12.23351318 30.87093994 11.62596191 30.93450684 11 31 C7.72073277 24.84948497 4.84753908 18.53737707 2.125 12.125 C1.80265381 11.38773682 1.48030762 10.65047363 1.14819336 9.89086914 C-0.42175371 6.1297977 -1.27550366 3.89109344 0 0 Z " fill="#000000" transform="translate(213,25)"/>
<path d="M0 0 C4.95 0 9.9 0 15 0 C15 30.36 15 60.72 15 92 C-12.60810811 92 -12.60810811 92 -23.5 91.5 C-24.63179688 91.45230469 -25.76359375 91.40460938 -26.9296875 91.35546875 C-29.62002163 91.24147154 -32.31007012 91.12310293 -35 91 C-34.67 90.01 -34.34 89.02 -34 88 C-33.34 88.33 -32.68 88.66 -32 89 C-17.48 89 -2.96 89 12 89 C12.33 59.96 12.66 30.92 13 1 C8.71 1 4.42 1 0 1 C0 0.67 0 0.34 0 0 Z " fill="#FECB4D" transform="translate(410,0)"/>
<path d="M0 0 C11.55234255 -0.02314573 23.1046796 -0.04092651 34.6570406 -0.05181217 C40.02096181 -0.0570361 45.38486719 -0.0641249 50.7487793 -0.07543945 C55.92291101 -0.08628568 61.09702746 -0.09228054 66.27116966 -0.09487724 C68.24757312 -0.09672835 70.22397572 -0.10034297 72.2003727 -0.10573006 C74.9634343 -0.11296346 77.72643244 -0.11398996 80.48950195 -0.11352539 C81.7216468 -0.1189183 81.7216468 -0.1189183 82.97868347 -0.12442017 C86.24744175 -0.11845265 88.87639203 -0.04120266 92 1 C93.91765594 1.14939774 95.83946522 1.24810283 97.76171875 1.31640625 C99.43911133 1.37924805 99.43911133 1.37924805 101.15039062 1.44335938 C102.31763672 1.48267578 103.48488281 1.52199219 104.6875 1.5625 C105.86634766 1.60568359 107.04519531 1.64886719 108.25976562 1.69335938 C111.17305883 1.79951176 114.08643757 1.90156242 117 2 C117 2.33 117 2.66 117 3 C105.05479918 3.02331581 93.1096039 3.04101213 81.16438484 3.05181217 C75.61592929 3.05699933 70.06748947 3.06401993 64.51904297 3.07543945 C59.15032678 3.08641813 53.78162558 3.0923081 48.41289902 3.09487724 C46.37911621 3.09670481 44.34533408 3.10027254 42.31155777 3.10573006 C32.5015048 3.13097371 22.71555819 3.08351033 12.91748047 2.55639648 C11.82108088 2.49811346 11.82108088 2.49811346 10.70253181 2.43865299 C7.05749623 2.21642681 3.55907053 1.82575528 0 1 C0 0.67 0 0.34 0 0 Z " fill="#E65B81" transform="translate(39,0)"/>
<path d="M0 0 C30.03 0 60.06 0 91 0 C91 0.33 91 0.66 91 1 C81.62815543 3.38027321 72.4086965 3.30967969 62.8125 3.30078125 C61.06038309 3.30467363 59.30826712 3.30900941 57.55615234 3.31376648 C53.90507934 3.32118846 50.25410315 3.32096381 46.60302734 3.31567383 C41.91756784 3.30984067 37.23249872 3.32692144 32.54710388 3.3500185 C28.93896155 3.36471001 25.33091474 3.36563459 21.7227478 3.36250877 C19.99391904 3.36302286 18.26508506 3.36827703 16.5362854 3.37832069 C14.13069614 3.39059853 11.72588835 3.38394986 9.3203125 3.37231445 C8.60450516 3.37995819 7.88869781 3.38760193 7.15119934 3.39547729 C5.17236328 3.3742218 5.17236328 3.3742218 2 3 C1.34 2.01 0.68 1.02 0 0 Z " fill="#F28C68" transform="translate(229,0)"/>
<path d="M0 0 C3.06382739 0.32432407 3.98970965 0.98901487 6.140625 3.28515625 C9.0703125 7.14257812 9.0703125 7.14257812 12 11 C14.64 7.37 17.28 3.74 20 0 C21.32 0.33 22.64 0.66 24 1 C22.67341675 4.79309481 20.99142656 7.36105819 18.4375 10.4375 C13.9755418 16.55649247 13.92558645 22.62242824 14 30 C12.0625 30.5625 12.0625 30.5625 10 31 C9.67 30.67 9.34 30.34 9 30 C9 27.72916667 9 25.45833333 9 23.1875 C8.78243303 15.30590011 5.97390701 11.17676912 0.8359375 5.390625 C0.23007812 4.60171875 -0.37578125 3.8128125 -1 3 C-0.67 2.01 -0.34 1.02 0 0 Z " fill="#000000" transform="translate(392,25)"/>
<path d="M0 0 C7.59 0 15.18 0 23 0 C23.33 1.32 23.66 2.64 24 4 C20.7 4 17.4 4 14 4 C14 12.91 14 21.82 14 31 C12.35 30.67 10.7 30.34 9 30 C9 21.42 9 12.84 9 4 C6.03 4 3.06 4 0 4 C0 2.68 0 1.36 0 0 Z " fill="#000000" transform="translate(91,25)"/>
<path d="M0 0 C3.05081496 0.31723076 3.90666113 0.88901781 5.921875 3.28515625 C6.52515625 4.20167969 7.1284375 5.11820313 7.75 6.0625 C8.36359375 6.98160156 8.9771875 7.90070312 9.609375 8.84765625 C10.06828125 9.55792969 10.5271875 10.26820312 11 11 C11.61488281 10.2059375 12.22976563 9.411875 12.86328125 8.59375 C13.67152344 7.5728125 14.47976563 6.551875 15.3125 5.5 C16.11300781 4.4790625 16.91351563 3.458125 17.73828125 2.40625 C18.48464844 1.6121875 19.23101562 0.818125 20 0 C20.99 0 21.98 0 23 0 C22.47168056 4.18252893 21.21401821 6.20493775 18.5 9.375 C13.7046278 15.84728149 13.92700944 22.17958249 14 30 C12.35 30.33 10.7 30.66 9 31 C9.03222656 30.06800781 9.06445312 29.13601562 9.09765625 28.17578125 C9.00886105 18.41817492 6.94823752 13.16673222 0.8359375 5.609375 C0.23007812 4.74828125 -0.37578125 3.8871875 -1 3 C-0.67 2.01 -0.34 1.02 0 0 Z " fill="#000000" transform="translate(294,25)"/>
<path d="M0 0 C16.5 0 33 0 50 0 C50 0.33 50 0.66 50 1 C63.365 1.495 63.365 1.495 77 2 C77 2.66 77 3.32 77 4 C51.31260559 4.13214726 25.67403467 3.85338022 0 3 C0 2.01 0 1.02 0 0 Z " fill="#F29462" transform="translate(238,88)"/>
<path d="M0 0 C1.46544195 0.00373841 2.93088643 0.00658146 4.39633179 0.00857544 C8.22018552 0.01614685 12.04388302 0.03573806 15.86767578 0.0579834 C19.78285612 0.07858317 23.69806213 0.08760712 27.61328125 0.09765625 C35.27090392 0.11899132 42.92839867 0.15304696 50.5859375 0.1953125 C50.5859375 0.5253125 50.5859375 0.8553125 50.5859375 1.1953125 C53.5559375 1.5253125 56.5259375 1.8553125 59.5859375 2.1953125 C59.5859375 2.5253125 59.5859375 2.8553125 59.5859375 3.1953125 C31.5359375 3.1953125 3.4859375 3.1953125 -25.4140625 3.1953125 C-25.4140625 2.8653125 -25.4140625 2.5353125 -25.4140625 2.1953125 C-16.96606285 -0.01542732 -8.66470611 -0.06556954 0 0 Z " fill="#F8A95A" transform="translate(335.4140625,-0.1953125)"/>
<path d="M0 0 C7.92 0 15.84 0 24 0 C24 1.32 24 2.64 24 4 C20.7 4 17.4 4 14 4 C14 12.91 14 21.82 14 31 C12.68 31 11.36 31 10 31 C10 22.09 10 13.18 10 4 C6.7 4 3.4 4 0 4 C0 2.68 0 1.36 0 0 Z " fill="#000000" transform="translate(63,25)"/>
<path d="M0 0 C51.15 0 102.3 0 155 0 C155 0.33 155 0.66 155 1 C103.85 1 52.7 1 0 1 C0 0.67 0 0.34 0 0 Z " fill="#CC5577" transform="translate(0,92)"/>
<path d="M0 0 C49.5 0 99 0 150 0 C150 0.33 150 0.66 150 1 C100.5 1 51 1 0 1 C0 0.67 0 0.34 0 0 Z " fill="#F8AD4B" transform="translate(275,93)"/>
<path d="M0 0 C49.5 0 99 0 150 0 C150 0.33 150 0.66 150 1 C100.5 1 51 1 0 1 C0 0.67 0 0.34 0 0 Z " fill="#F89553" transform="translate(238,86)"/>
<path d="M0 0 C9.24 0 18.48 0 28 0 C28 0.66 28 1.32 28 2 C36.25 2.33 44.5 2.66 53 3 C53 3.33 53 3.66 53 4 C45.64936254 4.05062952 38.29876989 4.08570377 30.94799805 4.10986328 C28.44635335 4.11993288 25.94472045 4.13358934 23.44311523 4.15087891 C19.85137014 4.17508492 16.2597804 4.18647346 12.66796875 4.1953125 C10.98503975 4.21079636 10.98503975 4.21079636 9.26811218 4.22659302 C8.22725967 4.22674408 7.18640717 4.22689514 6.11401367 4.22705078 C5.19690109 4.231492 4.27978851 4.23593323 3.33488464 4.24050903 C1 4 1 4 -2 2 C-1.34 2 -0.68 2 0 2 C0 1.34 0 0.68 0 0 Z " fill="#FAB455" transform="translate(348,88)"/>
<path d="M0 0 C2.98627031 -0.00985893 5.97189383 -0.04103829 8.95800781 -0.07226562 C10.85644127 -0.07878306 12.75487958 -0.08403845 14.65332031 -0.08789062 C15.5459256 -0.10023743 16.43853088 -0.11258423 17.35818481 -0.12530518 C19.84912109 -0.11621094 19.84912109 -0.11621094 23.83300781 0.24023438 C24.49300781 1.23023437 25.15300781 2.22023437 25.83300781 3.24023438 C6.80400266 3.35425404 -12.15829504 3.27923279 -31.16699219 2.24023438 C-31.16699219 1.91023437 -31.16699219 1.58023437 -31.16699219 1.24023438 C-20.79554093 0.06134882 -10.42602201 0.02088686 0 0 Z " fill="#F07D71" transform="translate(205.1669921875,-0.240234375)"/>
<path d="M0 0 C0 0.33 0 0.66 0 1 C-8.46658081 3.34334564 -16.82602474 3.27421381 -25.53100586 3.20581055 C-27.92898259 3.18756481 -30.32657037 3.1853015 -32.72460938 3.18554688 C-40.86524576 3.166269 -48.90536971 2.96957047 -57 2 C-57 1.67 -57 1.34 -57 1 C-37.9926038 -0.08392483 -19.02986195 -0.10957047 0 0 Z " fill="#F89C62" transform="translate(320,0)"/>
<path d="M0 0 C6.49609906 -0.07597206 12.99208385 -0.12856672 19.48852539 -0.16479492 C21.69918092 -0.17989525 23.90980643 -0.20037709 26.12036133 -0.22631836 C29.29515993 -0.26264655 32.46956297 -0.27971384 35.64453125 -0.29296875 C36.63524124 -0.30845261 37.62595123 -0.32393646 38.64668274 -0.33988953 C39.56741074 -0.34011612 40.48813873 -0.34034271 41.43676758 -0.34057617 C42.2472908 -0.34723801 43.05781403 -0.35389984 43.89289856 -0.36076355 C46.48203067 0.08253001 47.35995727 1.00365643 49 3 C23.85692859 3.18990235 23.85692859 3.18990235 12.6875 2.5625 C11.97287598 2.52326416 11.25825195 2.48402832 10.52197266 2.44360352 C6.93957442 2.21693003 3.4992262 1.80543118 0 1 C0 0.67 0 0.34 0 0 Z " fill="#E24A88" transform="translate(39,0)"/>
<path d="M0 0 C0 0.33 0 0.66 0 1 C2.97 1.33 5.94 1.66 9 2 C9 2.33 9 2.66 9 3 C3.8994989 3.02514849 -1.20096434 3.04306659 -6.30151367 3.05493164 C-8.0284081 3.05988984 -9.75529851 3.06665843 -11.48217773 3.07543945 C-23.03003163 3.1325904 -34.48068359 2.82780796 -46 2 C-46 1.67 -46 1.34 -46 1 C-30.65496837 0.19338293 -15.36559001 -0.1396286 0 0 Z " fill="#FBB654" transform="translate(386,0)"/>
<path d="M0 0 C13.53 0 27.06 0 41 0 C41.495 1.485 41.495 1.485 42 3 C40.02 3 38.04 3 36 3 C36 2.34 36 1.68 36 1 C24.12 1 12.24 1 0 1 C0 0.67 0 0.34 0 0 Z " fill="#FA9F75" transform="translate(239,89)"/>
<path d="M0 0 C3.96 0 7.92 0 12 0 C12 1.32 12 2.64 12 4 C8.04 4 4.08 4 0 4 C0 2.68 0 1.36 0 0 Z " fill="#000000" transform="translate(320,42)"/>
<path d="M0 0 C3.96 0 7.92 0 12 0 C12 1.32 12 2.64 12 4 C8.04 4 4.08 4 0 4 C0 2.68 0 1.36 0 0 Z " fill="#000000" transform="translate(172,42)"/>
<path d="M0 0 C2.97 0 5.94 0 9 0 C9 0.33 9 0.66 9 1 C6.36 1 3.72 1 1 1 C1 9.25 1 17.5 1 26 C0.67 26 0.34 26 0 26 C0 17.42 0 8.84 0 0 Z " fill="#000000" transform="translate(106,30)"/>
<path d="M0 0 C0.33 0 0.66 0 1 0 C1 9.24 1 18.48 1 28 C0.67 28 0.34 28 0 28 C-1.32368341 18.57130123 -0.71960516 9.44343382 0 0 Z " fill="#000000" transform="translate(38,27)"/>
<path d="M0 0 C0.66 0 1.32 0 2 0 C2 9.9 2 19.8 2 30 C1.67 30 1.34 30 1 30 C0.67 20.1 0.34 10.2 0 0 Z " fill="#000000" transform="translate(116,26)"/>
<path d="M0 0 C2.64 0 5.28 0 8 0 C8 8.25 8 16.5 8 25 C7.67 25 7.34 25 7 25 C7 17.08 7 9.16 7 1 C4.69 1 2.38 1 0 1 C0 0.67 0 0.34 0 0 Z " fill="#000000" transform="translate(91,30)"/>
<path d="M0 0 C0.66 0 1.32 0 2 0 C2 9.57 2 19.14 2 29 C1.67 29 1.34 29 1 29 C0.67 19.43 0.34 9.86 0 0 Z " fill="#000000" transform="translate(240,26)"/>
<path d="M0 0 C0.33 0 0.66 0 1 0 C1 10.23 1 20.46 1 31 C0.67 31 0.34 31 0 31 C0 20.77 0 10.54 0 0 Z " fill="#000000" transform="translate(188,25)"/>
<path d="M0 0 C0.33 0 0.66 0 1 0 C1 10.23 1 20.46 1 31 C0.67 31 0.34 31 0 31 C0 20.77 0 10.54 0 0 Z " fill="#000000" transform="translate(142,25)"/>
<path d="M0 0 C9.9 0 19.8 0 30 0 C30 0.33 30 0.66 30 1 C20.1 1 10.2 1 0 1 C0 0.67 0 0.34 0 0 Z " fill="#F6895C" transform="translate(238,92)"/>
<path d="M0 0 C0.33 0 0.66 0 1 0 C1 9.9 1 19.8 1 30 C0.67 30 0.34 30 0 30 C0 20.1 0 10.2 0 0 Z " fill="#000000" transform="translate(336,26)"/>
<path d="M0 0 C0.33 0 0.66 0 1 0 C1 9.9 1 19.8 1 30 C0.67 30 0.34 30 0 30 C0 20.1 0 10.2 0 0 Z " fill="#000000" transform="translate(266,26)"/>
<path d="M0 0 C0.33 0 0.66 0 1 0 C1 9.57 1 19.14 1 29 C0.67 29 0.34 29 0 29 C0 19.43 0 9.86 0 0 Z " fill="#000000" transform="translate(10,26)"/>
<path d="M0 0 C3.3 0 6.6 0 10 0 C10 0.33 10 0.66 10 1 C7.03 1 4.06 1 1 1 C1 2.65 1 4.3 1 6 C4.96 6 8.92 6 13 6 C13 6.33 13 6.66 13 7 C8.71 7 4.42 7 0 7 C0 4.69 0 2.38 0 0 Z " fill="#000000" transform="translate(125,44)"/>
<path d="M0 0 C3.63 0 7.26 0 11 0 C11 0.33 11 0.66 11 1 C7.7 1 4.4 1 1 1 C1 6.61 1 12.22 1 18 C0.67 18 0.34 18 0 18 C0 12.06 0 6.12 0 0 Z " fill="#000000" transform="translate(344,31)"/>
<path d="M0 0 C7.92 0 15.84 0 24 0 C24 0.33 24 0.66 24 1 C16.08 1 8.16 1 0 1 C0 0.67 0 0.34 0 0 Z " fill="#000000" transform="translate(63,23)"/>
<path d="M0 0 C1.98 0.66 3.96 1.32 6 2 C6.33 3.65 6.66 5.3 7 7 C6.01 7.66 5.02 8.32 4 9 C3.896875 8.443125 3.79375 7.88625 3.6875 7.3125 C2.86866423 4.55823422 1.54146219 2.41272343 0 0 Z " fill="#E77BAC" transform="translate(203,82)"/>
<path d="M0 0 C7.59 0 15.18 0 23 0 C23 0.33 23 0.66 23 1 C15.41 1 7.82 1 0 1 C0 0.67 0 0.34 0 0 Z " fill="#000000" transform="translate(91,23)"/>
<path d="M0 0 C3.3 0 6.6 0 10 0 C10 0.33 10 0.66 10 1 C7.03 1 4.06 1 1 1 C1 4.3 1 7.6 1 11 C0.67 11 0.34 11 0 11 C0 7.37 0 3.74 0 0 Z " fill="#000000" transform="translate(149,45)"/>
<path d="M0 0 C6.27 0 12.54 0 19 0 C19 0.33 19 0.66 19 1 C12.73 1 6.46 1 0 1 C0 0.67 0 0.34 0 0 Z " fill="#000000" transform="translate(41,23)"/>
<path d="M0 0 C5.94 0 11.88 0 18 0 C18 0.33 18 0.66 18 1 C12.06 1 6.12 1 0 1 C0 0.67 0 0.34 0 0 Z " fill="#000000" transform="translate(244,23)"/>
<path d="M0 0 C5.94 0 11.88 0 18 0 C18 0.33 18 0.66 18 1 C12.06 1 6.12 1 0 1 C0 0.67 0 0.34 0 0 Z " fill="#000000" transform="translate(191,23)"/>
<path d="M0 0 C5.94 0 11.88 0 18 0 C18 0.33 18 0.66 18 1 C12.06 1 6.12 1 0 1 C0 0.67 0 0.34 0 0 Z " fill="#000000" transform="translate(120,23)"/>
<path d="M0 0 C1.0625 1.8125 1.0625 1.8125 2 4 C1 7 1 7 -1 8 C-1.625 5.125 -1.625 5.125 -2 2 C-1.34 1.34 -0.68 0.68 0 0 Z " fill="#C4346A" transform="translate(184,81)"/>
<path d="M0 0 C5.61 0 11.22 0 17 0 C17 0.33 17 0.66 17 1 C11.39 1 5.78 1 0 1 C0 0.67 0 0.34 0 0 Z " fill="#000000" transform="translate(144,23)"/>
<path d="M0 0 C5.28 0 10.56 0 16 0 C16 0.33 16 0.66 16 1 C10.72 1 5.44 1 0 1 C0 0.67 0 0.34 0 0 Z " fill="#000000" transform="translate(245,58)"/>
<path d="M0 0 C5.28 0 10.56 0 16 0 C16 0.33 16 0.66 16 1 C10.72 1 5.44 1 0 1 C0 0.67 0 0.34 0 0 Z " fill="#000000" transform="translate(192,58)"/>
<path d="M0 0 C5.28 0 10.56 0 16 0 C16 0.33 16 0.66 16 1 C10.72 1 5.44 1 0 1 C0 0.67 0 0.34 0 0 Z " fill="#000000" transform="translate(121,58)"/>
<path d="M0 0 C5.28 0 10.56 0 16 0 C16 0.33 16 0.66 16 1 C10.72 1 5.44 1 0 1 C0 0.67 0 0.34 0 0 Z " fill="#000000" transform="translate(339,23)"/>
<path d="M0 0 C5.28 0 10.56 0 16 0 C16 0.33 16 0.66 16 1 C10.72 1 5.44 1 0 1 C0 0.67 0 0.34 0 0 Z " fill="#000000" transform="translate(269,23)"/>
<path d="M0 0 C5.28 0 10.56 0 16 0 C16 0.33 16 0.66 16 1 C10.72 1 5.44 1 0 1 C0 0.67 0 0.34 0 0 Z " fill="#000000" transform="translate(13,23)"/>
<path d="M0 0 C4.95 0 9.9 0 15 0 C15 0.33 15 0.66 15 1 C10.05 1 5.1 1 0 1 C0 0.67 0 0.34 0 0 Z " fill="#000000" transform="translate(43,58)"/>
<path d="M0 0 C0.33 0 0.66 0 1 0 C1 4.95 1 9.9 1 15 C0.67 15 0.34 15 0 15 C0 10.05 0 5.1 0 0 Z " fill="#000000" transform="translate(301,41)"/>
<path d="M0 0 C0.33 0 0.66 0 1 0 C1 4.95 1 9.9 1 15 C0.67 15 0.34 15 0 15 C0 10.05 0 5.1 0 0 Z " fill="#000000" transform="translate(399,40)"/>
<path d="M0 0 C0.33 0 0.66 0 1 0 C1 4.95 1 9.9 1 15 C0.67 15 0.34 15 0 15 C0 10.05 0 5.1 0 0 Z " fill="#000000" transform="translate(309,40)"/>
<path d="M0 0 C3.96 0 7.92 0 12 0 C11.67 0.66 11.34 1.32 11 2 C7.37 2 3.74 2 0 2 C0 1.34 0 0.68 0 0 Z " fill="#000000" transform="translate(373,49)"/>
<path d="M0 0 C3.3 0 6.6 0 10 0 C10 0.33 10 0.66 10 1 C7.03 1 4.06 1 1 1 C0.67 2.32 0.34 3.64 0 5 C0 3.35 0 1.7 0 0 Z " fill="#000000" transform="translate(196,44)"/>
<path d="M0 0 C0.33 0 0.66 0 1 0 C1 4.62 1 9.24 1 14 C0.67 14 0.34 14 0 14 C0 9.38 0 4.76 0 0 Z " fill="#000000" transform="translate(407,41)"/>
<path d="M0 0 C3.63 0 7.26 0 11 0 C11 0.33 11 0.66 11 1 C7.7 1 4.4 1 1 1 C0.67 1.99 0.34 2.98 0 4 C0 2.68 0 1.36 0 0 Z " fill="#000000" transform="translate(196,31)"/>
<path d="M0 0 C4.29 0 8.58 0 13 0 C13 0.33 13 0.66 13 1 C8.71 1 4.42 1 0 1 C0 0.67 0 0.34 0 0 Z " fill="#000000" transform="translate(14,58)"/>
<path d="M0 0 C3.96 0 7.92 0 12 0 C12 0.33 12 0.66 12 1 C8.04 1 4.08 1 0 1 C0 0.67 0 0.34 0 0 Z " fill="#000000" transform="translate(340,58)"/>
<path d="M0 0 C3.96 0 7.92 0 12 0 C12 0.33 12 0.66 12 1 C8.04 1 4.08 1 0 1 C0 0.67 0 0.34 0 0 Z " fill="#000000" transform="translate(320,47)"/>
<path d="M0 0 C3.96 0 7.92 0 12 0 C12 0.33 12 0.66 12 1 C8.04 1 4.08 1 0 1 C0 0.67 0 0.34 0 0 Z " fill="#000000" transform="translate(172,47)"/>
<path d="M0 0 C3.96 0 7.92 0 12 0 C12 0.33 12 0.66 12 1 C8.04 1 4.08 1 0 1 C0 0.67 0 0.34 0 0 Z " fill="#000000" transform="translate(320,40)"/>
<path d="M0 0 C3.96 0 7.92 0 12 0 C12 0.33 12 0.66 12 1 C8.04 1 4.08 1 0 1 C0 0.67 0 0.34 0 0 Z " fill="#000000" transform="translate(172,40)"/>
<path d="M0 0 C2.97 0 5.94 0 9 0 C8.67 0.99 8.34 1.98 8 3 C7.67 2.67 7.34 2.34 7 2 C4.67182036 1.63239269 2.3381615 1.29758419 0 1 C0 0.67 0 0.34 0 0 Z " fill="#000000" transform="translate(63,30)"/>
<path d="M0 0 C2.97 0 5.94 0 9 0 C9 0.33 9 0.66 9 1 C4.545 1.495 4.545 1.495 0 2 C0 1.34 0 0.68 0 0 Z " fill="#000000" transform="translate(78,30)"/>
<path d="M0 0 C3.3 0 6.6 0 10 0 C10 0.33 10 0.66 10 1 C6.7 1 3.4 1 0 1 C0 0.67 0 0.34 0 0 Z " fill="#EE449D" transform="translate(190,99)"/>
<path d="M0 0 C0.33 0 0.66 0 1 0 C1 3.3 1 6.6 1 10 C0.67 10 0.34 10 0 10 C0 6.7 0 3.4 0 0 Z " fill="#000000" transform="translate(365,36)"/>
<path d="M0 0 C0.33 0 0.66 0 1 0 C1 3.3 1 6.6 1 10 C0.67 10 0.34 10 0 10 C0 6.7 0 3.4 0 0 Z " fill="#000000" transform="translate(357,36)"/>
<path d="M0 0 C0.33 0 0.66 0 1 0 C1 2.64 1 5.28 1 8 C0.67 8 0.34 8 0 8 C0 5.36 0 2.72 0 0 Z " fill="#CC4294" transform="translate(180,79)"/>
<path d="M0 0 C1.98 0 3.96 0 6 0 C6 0.66 6 1.32 6 2 C4.02 2 2.04 2 0 2 C0 1.34 0 0.68 0 0 Z " fill="#000000" transform="translate(376,41)"/>
<path d="M0 0 C0.33 0 0.66 0 1 0 C1 2.64 1 5.28 1 8 C0.67 8 0.34 8 0 8 C0 5.36 0 2.72 0 0 Z " fill="#000000" transform="translate(35,29)"/>
<path d="M0 0 C0.33 0 0.66 0 1 0 C1 2.31 1 4.62 1 7 C0.67 7 0.34 7 0 7 C0 4.69 0 2.38 0 0 Z " fill="#000000" transform="translate(292,31)"/>
<path d="M0 0 C1.32 0 2.64 0 4 0 C3.67 0.99 3.34 1.98 3 3 C2.01 2.01 1.02 1.02 0 0 Z " fill="#000000" transform="translate(288,26)"/>
<path d="M0 0 C0.99 0.33 1.98 0.66 3 1 C3 1.66 3 2.32 3 3 C2.01 2.67 1.02 2.34 0 2 C0 1.34 0 0.68 0 0 Z " fill="#BB434E" transform="translate(210,90)"/>
<path d="M0 0 C0.33 0 0.66 0 1 0 C1 1.65 1 3.3 1 5 C0.34 4.67 -0.32 4.34 -1 4 C-0.67 2.68 -0.34 1.36 0 0 Z " fill="#000000" transform="translate(29,45)"/>
<path d="M0 0 C0.33 0 0.66 0 1 0 C1 1.98 1 3.96 1 6 C0.67 6 0.34 6 0 6 C0 4.02 0 2.04 0 0 Z " fill="#000000" transform="translate(291,45)"/>
<path d="M0 0 C0.33 0 0.66 0 1 0 C1 1.98 1 3.96 1 6 C0.67 6 0.34 6 0 6 C0 4.02 0 2.04 0 0 Z " fill="#000000" transform="translate(167,45)"/>
<path d="M0 0 C0.66 0 1.32 0 2 0 C2 0.99 2 1.98 2 3 C1.34 3 0.68 3 0 3 C0 2.01 0 1.02 0 0 Z " fill="#000000" transform="translate(378,36)"/>
<path d="M0 0 C0.33 0 0.66 0 1 0 C1 1.98 1 3.96 1 6 C0.67 6 0.34 6 0 6 C0 4.02 0 2.04 0 0 Z " fill="#000000" transform="translate(168,31)"/>
<path d="M0 0 C0.99 0.495 0.99 0.495 2 1 C2 1.99 2 2.98 2 4 C1.34 4 0.68 4 0 4 C0 2.68 0 1.36 0 0 Z " fill="#000000" transform="translate(88,25)"/>
<path d="M0 0 C0.99 0.33 1.98 0.66 3 1 C2.67 1.66 2.34 2.32 2 3 C1.34 2.01 0.68 1.02 0 0 Z " fill="#BB1144" transform="translate(196,74)"/>
<path d="M0 0 C1.65 0 3.3 0 5 0 C5 0.33 5 0.66 5 1 C3.35 1 1.7 1 0 1 C0 0.67 0 0.34 0 0 Z " fill="#FF337F" transform="translate(188,71)"/>
<path d="M0 0 C1.32 0.33 2.64 0.66 4 1 C3.01 1.33 2.02 1.66 1 2 C0.67 1.34 0.34 0.68 0 0 Z " fill="#000000" transform="translate(402,57)"/>
<path d="M0 0 C1.32 0.33 2.64 0.66 4 1 C3.01 1.495 3.01 1.495 2 2 C1.34 1.34 0.68 0.68 0 0 Z " fill="#000000" transform="translate(268,57)"/>
<path d="M0 0 C0.33 0 0.66 0 1 0 C1 1.65 1 3.3 1 5 C0.67 5 0.34 5 0 5 C0 3.35 0 1.7 0 0 Z " fill="#000000" transform="translate(284,49)"/>
<path d="M0 0 C0.33 0 0.66 0 1 0 C1 1.65 1 3.3 1 5 C0.67 5 0.34 5 0 5 C0 3.35 0 1.7 0 0 Z " fill="#000000" transform="translate(159,46)"/>
<path d="M0 0 C0.33 0.66 0.66 1.32 1 2 C0.34 2.66 -0.32 3.32 -1 4 C-0.67 2.68 -0.34 1.36 0 0 Z " fill="#000000" transform="translate(226,42)"/>
<path d="M0 0 C0.33 0 0.66 0 1 0 C1 1.65 1 3.3 1 5 C0.67 5 0.34 5 0 5 C0 3.35 0 1.7 0 0 Z " fill="#000000" transform="translate(160,32)"/>
<path d="M0 0 C1 4 1 4 1 4 Z " fill="#FF007F" transform="translate(211,86)"/>
<path d="M0 0 C4 1 4 1 4 1 Z " fill="#FF509F" transform="translate(199,77)"/>
<path d="M0 0 C0.99 0.33 1.98 0.66 3 1 C2.01 1 1.02 1 0 1 C0 0.67 0 0.34 0 0 Z " fill="#E96545" transform="translate(167,68)"/>
<path d="M0 0 C4 1 4 1 4 1 Z " fill="#000000" transform="translate(352,57)"/>
<path d="M0 0 C4 1 4 1 4 1 Z " fill="#000000" transform="translate(303,57)"/>
<path d="M0 0 C4 1 4 1 4 1 Z " fill="#000000" transform="translate(288,57)"/>
<path d="M0 0 C4 1 4 1 4 1 Z " fill="#000000" transform="translate(164,57)"/>
<path d="M0 0 C4 1 4 1 4 1 Z " fill="#000000" transform="translate(144,57)"/>
<path d="M0 0 C4 1 4 1 4 1 Z " fill="#000000" transform="translate(73,57)"/>
<path d="M0 0 C4 1 4 1 4 1 Z " fill="#000000" transform="translate(27,57)"/>
<path d="M0 0 C1 4 1 4 1 4 Z " fill="#000000" transform="translate(364,52)"/>
<path d="M0 0 C1 4 1 4 1 4 Z " fill="#000000" transform="translate(61,52)"/>
<path d="M0 0 C0 3 0 3 0 3 Z " fill="#000000" transform="translate(165,40)"/>
<path d="M0 0 C0.99 0.495 0.99 0.495 2 1 C1.67 1.66 1.34 2.32 1 3 C0.67 2.01 0.34 1.02 0 0 Z " fill="#000000" transform="translate(393,32)"/>
<path d="M0 0 C0 3 0 3 0 3 Z " fill="#000000" transform="translate(307,31)"/>
<path d="M0 0 C0.99 0.495 0.99 0.495 2 1 C1.67 1.66 1.34 2.32 1 3 C0.67 2.01 0.34 1.02 0 0 Z " fill="#000000" transform="translate(302,30)"/>
<path d="M0 0 C0 3 0 3 0 3 Z " fill="#000000" transform="translate(406,30)"/>
<path d="M0 0 C1 4 1 4 1 4 Z " fill="#000000" transform="translate(318,25)"/>
<path d="M0 0 C1 4 1 4 1 4 Z " fill="#000000" transform="translate(61,25)"/>
<path d="M0 0 C4 1 4 1 4 1 Z " fill="#000000" transform="translate(377,23)"/>
<path d="M0 0 C4 1 4 1 4 1 Z " fill="#000000" transform="translate(313,23)"/>
<path d="M0 0 C3 1 3 1 3 1 Z " fill="#FF47B8" transform="translate(200,98)"/>
<path d="" fill="#FF8E71" transform="translate(0,0)"/>
<path d="" fill="#E271C6" transform="translate(0,0)"/>
<path d="M0 0 C3 1 3 1 3 1 Z " fill="#000000" transform="translate(224,57)"/>
<path d="" fill="#000000" transform="translate(0,0)"/>
<path d="" fill="#000000" transform="translate(0,0)"/>
<path d="" fill="#000000" transform="translate(0,0)"/>
<path d="" fill="#000000" transform="translate(0,0)"/>
<path d="" fill="#000000" transform="translate(0,0)"/>
<path d="" fill="#000000" transform="translate(0,0)"/>
<path d="" fill="#000000" transform="translate(0,0)"/>
<path d="" fill="#000000" transform="translate(0,0)"/>
<path d="" fill="#000000" transform="translate(0,0)"/>
<path d="" fill="#000000" transform="translate(0,0)"/>
<path d="" fill="#000000" transform="translate(0,0)"/>
<path d="" fill="#000000" transform="translate(0,0)"/>
<path d="M0 0 C0.66 0 1.32 0 2 0 C1.67 0.66 1.34 1.32 1 2 C0.67 1.34 0.34 0.68 0 0 Z " fill="#000000" transform="translate(288,41)"/>
<path d="" fill="#000000" transform="translate(0,0)"/>
<path d="" fill="#000000" transform="translate(0,0)"/>
<path d="" fill="#000000" transform="translate(0,0)"/>
<path d="" fill="#000000" transform="translate(0,0)"/>
<path d="" fill="#000000" transform="translate(0,0)"/>
<path d="" fill="#000000" transform="translate(0,0)"/>
<path d="" fill="#000000" transform="translate(0,0)"/>
<path d="" fill="#000000" transform="translate(0,0)"/>
<path d="" fill="#000000" transform="translate(0,0)"/>
<path d="" fill="#000000" transform="translate(0,0)"/>
<path d="" fill="#000000" transform="translate(0,0)"/>
<path d="" fill="#000000" transform="translate(0,0)"/>
<path d="" fill="#000000" transform="translate(0,0)"/>
<path d="" fill="#000000" transform="translate(0,0)"/>
<path d="" fill="#000000" transform="translate(0,0)"/>
<path d="M0 0 C0.33 0.66 0.66 1.32 1 2 C0.34 1.67 -0.32 1.34 -1 1 C-0.67 0.67 -0.34 0.34 0 0 Z " fill="#000000" transform="translate(292,28)"/>
<path d="" fill="#000000" transform="translate(0,0)"/>
<path d="" fill="#000000" transform="translate(0,0)"/>
<path d="M0 0 C3 1 3 1 3 1 Z " fill="#000000" transform="translate(412,23)"/>
<path d="M0 0 C3 1 3 1 3 1 Z " fill="#000000" transform="translate(392,23)"/>
<path d="M0 0 C3 1 3 1 3 1 Z " fill="#000000" transform="translate(294,23)"/>
<path d="M0 0 C3 1 3 1 3 1 Z " fill="#000000" transform="translate(235,23)"/>
<path d="M0 0 C3 1 3 1 3 1 Z " fill="#000000" transform="translate(213,23)"/>
<path d="M0 0 C2 1 2 1 2 1 Z " fill="#BF4080" transform="translate(188,98)"/>
<path d="M0 0 C2 1 2 1 2 1 Z " fill="#FF4080" transform="translate(203,97)"/>
<path d="M0 0 C2 1 2 1 2 1 Z " fill="#FF2A55" transform="translate(205,96)"/>
<path d="" fill="#FF0080" transform="translate(0,0)"/>
<path d="" fill="#FF2A55" transform="translate(0,0)"/>
<path d="" fill="#FF8080" transform="translate(0,0)"/>
<path d="" fill="#D46A6A" transform="translate(0,0)"/>
<path d="" fill="#DF6080" transform="translate(0,0)"/>
<path d="" fill="#FF55AA" transform="translate(0,0)"/>
<path d="" fill="#FF40BF" transform="translate(0,0)"/>
<path d="M0 0 C2 1 2 1 2 1 Z " fill="#800080" transform="translate(205,79)"/>
<path d="M0 0 C2 1 2 1 2 1 Z " fill="#D455AA" transform="translate(203,78)"/>
<path d="" fill="#FF6A95" transform="translate(0,0)"/>
<path d="M0 0 C2 1 2 1 2 1 Z " fill="#FF6A95" transform="translate(193,72)"/>
<path d="M0 0 C2 1 2 1 2 1 Z " fill="#FF2AD4" transform="translate(186,72)"/>
<path d="M0 0 C2 1 2 1 2 1 Z " fill="#000000" transform="translate(388,57)"/>
<path d="M0 0 C2 1 2 1 2 1 Z " fill="#000000" transform="translate(368,57)"/>
<path d="M0 0 C2 1 2 1 2 1 Z " fill="#000000" transform="translate(338,57)"/>
<path d="M0 0 C2 1 2 1 2 1 Z " fill="#000000" transform="translate(261,57)"/>
<path d="M0 0 C2 1 2 1 2 1 Z " fill="#000000" transform="translate(190,57)"/>
<path d="M0 0 C2 1 2 1 2 1 Z " fill="#000000" transform="translate(137,57)"/>
<path d="M0 0 C2 1 2 1 2 1 Z " fill="#000000" transform="translate(119,57)"/>
<path d="M0 0 C2 1 2 1 2 1 Z " fill="#000000" transform="translate(103,57)"/>
<path d="M0 0 C2 1 2 1 2 1 Z " fill="#000000" transform="translate(58,57)"/>
<path d="M0 0 C2 1 2 1 2 1 Z " fill="#000000" transform="translate(41,57)"/>
<path d="M0 0 C2 1 2 1 2 1 Z " fill="#000000" transform="translate(356,56)"/>
<path d="M0 0 C2 1 2 1 2 1 Z " fill="#000000" transform="translate(31,56)"/>
<path d="" fill="#000000" transform="translate(0,0)"/>
<path d="" fill="#000000" transform="translate(0,0)"/>
<path d="" fill="#000000" transform="translate(0,0)"/>
<path d="" fill="#000000" transform="translate(0,0)"/>
<path d="" fill="#000000" transform="translate(0,0)"/>
<path d="" fill="#000000" transform="translate(0,0)"/>
<path d="" fill="#000000" transform="translate(0,0)"/>
<path d="" fill="#000000" transform="translate(0,0)"/>
<path d="" fill="#000000" transform="translate(0,0)"/>
<path d="" fill="#000000" transform="translate(0,0)"/>
<path d="" fill="#000000" transform="translate(0,0)"/>
<path d="" fill="#000000" transform="translate(0,0)"/>
<path d="" fill="#000000" transform="translate(0,0)"/>
<path d="" fill="#000000" transform="translate(0,0)"/>
<path d="" fill="#000000" transform="translate(0,0)"/>
<path d="" fill="#000000" transform="translate(0,0)"/>
<path d="" fill="#000000" transform="translate(0,0)"/>
<path d="" fill="#000000" transform="translate(0,0)"/>
<path d="M0 0 C2 1 2 1 2 1 Z " fill="#000000" transform="translate(353,49)"/>
<path d="" fill="#000000" transform="translate(0,0)"/>
<path d="" fill="#000000" transform="translate(0,0)"/>
<path d="" fill="#000000" transform="translate(0,0)"/>
<path d="" fill="#000000" transform="translate(0,0)"/>
<path d="" fill="#000000" transform="translate(0,0)"/>
<path d="" fill="#000000" transform="translate(0,0)"/>
<path d="" fill="#000000" transform="translate(0,0)"/>
<path d="" fill="#000000" transform="translate(0,0)"/>
<path d="" fill="#000000" transform="translate(0,0)"/>
<path d="" fill="#000000" transform="translate(0,0)"/>
<path d="" fill="#000000" transform="translate(0,0)"/>
<path d="" fill="#000000" transform="translate(0,0)"/>
<path d="" fill="#000000" transform="translate(0,0)"/>
<path d="" fill="#000000" transform="translate(0,0)"/>
<path d="" fill="#000000" transform="translate(0,0)"/>
<path d="" fill="#000000" transform="translate(0,0)"/>
<path d="M0 0 C2 1 2 1 2 1 Z " fill="#000000" transform="translate(206,43)"/>
<path d="M0 0 C2 1 2 1 2 1 Z " fill="#000000" transform="translate(135,43)"/>
<path d="" fill="#000000" transform="translate(0,0)"/>
<path d="" fill="#000000" transform="translate(0,0)"/>
<path d="" fill="#000000" transform="translate(0,0)"/>
<path d="" fill="#000000" transform="translate(0,0)"/>
<path d="" fill="#000000" transform="translate(0,0)"/>
<path d="" fill="#000000" transform="translate(0,0)"/>
<path d="" fill="#000000" transform="translate(0,0)"/>
<path d="" fill="#000000" transform="translate(0,0)"/>
<path d="" fill="#000000" transform="translate(0,0)"/>
<path d="" fill="#000000" transform="translate(0,0)"/>
<path d="" fill="#000000" transform="translate(0,0)"/>
<path d="" fill="#000000" transform="translate(0,0)"/>
<path d="" fill="#000000" transform="translate(0,0)"/>
<path d="" fill="#000000" transform="translate(0,0)"/>
<path d="" fill="#000000" transform="translate(0,0)"/>
<path d="" fill="#000000" transform="translate(0,0)"/>
<path d="" fill="#000000" transform="translate(0,0)"/>
<path d="" fill="#000000" transform="translate(0,0)"/>
<path d="" fill="#000000" transform="translate(0,0)"/>
<path d="" fill="#000000" transform="translate(0,0)"/>
<path d="" fill="#000000" transform="translate(0,0)"/>
<path d="" fill="#000000" transform="translate(0,0)"/>
<path d="" fill="#000000" transform="translate(0,0)"/>
<path d="" fill="#000000" transform="translate(0,0)"/>
<path d="" fill="#000000" transform="translate(0,0)"/>
<path d="" fill="#000000" transform="translate(0,0)"/>
<path d="" fill="#000000" transform="translate(0,0)"/>
<path d="" fill="#000000" transform="translate(0,0)"/>
<path d="" fill="#000000" transform="translate(0,0)"/>
<path d="" fill="#000000" transform="translate(0,0)"/>
<path d="" fill="#000000" transform="translate(0,0)"/>
<path d="" fill="#000000" transform="translate(0,0)"/>
<path d="" fill="#000000" transform="translate(0,0)"/>
<path d="" fill="#000000" transform="translate(0,0)"/>
<path d="" fill="#000000" transform="translate(0,0)"/>
<path d="" fill="#000000" transform="translate(0,0)"/>
<path d="" fill="#000000" transform="translate(0,0)"/>
<path d="" fill="#000000" transform="translate(0,0)"/>
<path d="" fill="#000000" transform="translate(0,0)"/>
<path d="" fill="#000000" transform="translate(0,0)"/>
<path d="" fill="#000000" transform="translate(0,0)"/>
<path d="" fill="#000000" transform="translate(0,0)"/>
<path d="" fill="#000000" transform="translate(0,0)"/>
<path d="" fill="#000000" transform="translate(0,0)"/>
<path d="M0 0 C2 1 2 1 2 1 Z " fill="#000000" transform="translate(261,30)"/>
<path d="" fill="#000000" transform="translate(0,0)"/>
<path d="" fill="#000000" transform="translate(0,0)"/>
<path d="" fill="#000000" transform="translate(0,0)"/>
<path d="M0 0 C2 1 2 1 2 1 Z " fill="#000000" transform="translate(137,30)"/>
<path d="M0 0 C2 1 2 1 2 1 Z " fill="#000000" transform="translate(58,30)"/>
<path d="" fill="#000000" transform="translate(0,0)"/>
<path d="" fill="#000000" transform="translate(0,0)"/>
<path d="" fill="#000000" transform="translate(0,0)"/>
<path d="" fill="#000000" transform="translate(0,0)"/>
<path d="" fill="#000000" transform="translate(0,0)"/>
<path d="" fill="#000000" transform="translate(0,0)"/>
<path d="" fill="#000000" transform="translate(0,0)"/>
<path d="" fill="#000000" transform="translate(0,0)"/>
<path d="" fill="#000000" transform="translate(0,0)"/>
<path d="" fill="#000000" transform="translate(0,0)"/>
<path d="" fill="#000000" transform="translate(0,0)"/>
<path d="" fill="#000000" transform="translate(0,0)"/>
<path d="" fill="#000000" transform="translate(0,0)"/>
<path d="" fill="#000000" transform="translate(0,0)"/>
<path d="" fill="#000000" transform="translate(0,0)"/>
<path d="" fill="#000000" transform="translate(0,0)"/>
<path d="" fill="#000000" transform="translate(0,0)"/>
<path d="M0 0 C2 1 2 1 2 1 Z " fill="#000000" transform="translate(357,25)"/>
<path d="M0 0 C2 1 2 1 2 1 Z " fill="#000000" transform="translate(210,25)"/>
<path d="M0 0 C2 1 2 1 2 1 Z " fill="#000000" transform="translate(31,25)"/>
<path d="M0 0 C2 1 2 1 2 1 Z " fill="#000000" transform="translate(355,24)"/>
<path d="M0 0 C2 1 2 1 2 1 Z " fill="#000000" transform="translate(285,24)"/>
<path d="M0 0 C2 1 2 1 2 1 Z " fill="#000000" transform="translate(161,24)"/>
<path d="" fill="#FF8080" transform="translate(0,0)"/>
<path d="" fill="#FF55AA" transform="translate(0,0)"/>
<path d="" fill="#FF00FF" transform="translate(0,0)"/>
<path d="" fill="#FF00FF" transform="translate(0,0)"/>
<path d="" fill="#BF4080" transform="translate(0,0)"/>
<path d="" fill="#FF0000" transform="translate(0,0)"/>
<path d="" fill="#FF0000" transform="translate(0,0)"/>
<path d="" fill="#FF0000" transform="translate(0,0)"/>
<path d="" fill="#FF8080" transform="translate(0,0)"/>
<path d="" fill="#FF8080" transform="translate(0,0)"/>
<path d="" fill="#FF55AA" transform="translate(0,0)"/>
<path d="" fill="#AA5555" transform="translate(0,0)"/>
<path d="" fill="#AA5555" transform="translate(0,0)"/>
<path d="" fill="#FF55AA" transform="translate(0,0)"/>
<path d="" fill="#FF55AA" transform="translate(0,0)"/>
<path d="" fill="#000000" transform="translate(0,0)"/>
<path d="" fill="#000000" transform="translate(0,0)"/>
<path d="" fill="#000000" transform="translate(0,0)"/>
<path d="" fill="#000000" transform="translate(0,0)"/>
<path d="" fill="#000000" transform="translate(0,0)"/>
<path d="" fill="#000000" transform="translate(0,0)"/>
<path d="" fill="#000000" transform="translate(0,0)"/>
<path d="" fill="#000000" transform="translate(0,0)"/>
<path d="" fill="#000000" transform="translate(0,0)"/>
<path d="" fill="#000000" transform="translate(0,0)"/>
<path d="" fill="#000000" transform="translate(0,0)"/>
<path d="" fill="#000000" transform="translate(0,0)"/>
<path d="" fill="#000000" transform="translate(0,0)"/>
<path d="" fill="#000000" transform="translate(0,0)"/>
<path d="" fill="#000000" transform="translate(0,0)"/>
<path d="" fill="#000000" transform="translate(0,0)"/>
<path d="" fill="#000000" transform="translate(0,0)"/>
<path d="" fill="#000000" transform="translate(0,0)"/>
<path d="" fill="#000000" transform="translate(0,0)"/>
<path d="" fill="#000000" transform="translate(0,0)"/>
<path d="" fill="#000000" transform="translate(0,0)"/>
<path d="" fill="#000000" transform="translate(0,0)"/>
<path d="" fill="#000000" transform="translate(0,0)"/>
<path d="" fill="#000000" transform="translate(0,0)"/>
<path d="" fill="#000000" transform="translate(0,0)"/>
<path d="" fill="#000000" transform="translate(0,0)"/>
<path d="" fill="#000000" transform="translate(0,0)"/>
<path d="" fill="#000000" transform="translate(0,0)"/>
<path d="" fill="#000000" transform="translate(0,0)"/>
<path d="" fill="#000000" transform="translate(0,0)"/>
<path d="" fill="#000000" transform="translate(0,0)"/>
<path d="" fill="#000000" transform="translate(0,0)"/>
<path d="" fill="#000000" transform="translate(0,0)"/>
<path d="" fill="#000000" transform="translate(0,0)"/>
<path d="" fill="#000000" transform="translate(0,0)"/>
<path d="" fill="#000000" transform="translate(0,0)"/>
<path d="" fill="#000000" transform="translate(0,0)"/>
<path d="" fill="#000000" transform="translate(0,0)"/>
<path d="" fill="#000000" transform="translate(0,0)"/>
<path d="" fill="#000000" transform="translate(0,0)"/>
<path d="" fill="#000000" transform="translate(0,0)"/>
<path d="" fill="#000000" transform="translate(0,0)"/>
<path d="" fill="#000000" transform="translate(0,0)"/>
<path d="" fill="#000000" transform="translate(0,0)"/>
<path d="" fill="#000000" transform="translate(0,0)"/>
<path d="" fill="#000000" transform="translate(0,0)"/>
<path d="" fill="#000000" transform="translate(0,0)"/>
<path d="" fill="#000000" transform="translate(0,0)"/>
<path d="" fill="#000000" transform="translate(0,0)"/>
<path d="" fill="#000000" transform="translate(0,0)"/>
<path d="" fill="#000000" transform="translate(0,0)"/>
<path d="" fill="#000000" transform="translate(0,0)"/>
<path d="" fill="#000000" transform="translate(0,0)"/>
<path d="" fill="#000000" transform="translate(0,0)"/>
<path d="" fill="#000000" transform="translate(0,0)"/>
<path d="" fill="#000000" transform="translate(0,0)"/>
<path d="" fill="#000000" transform="translate(0,0)"/>
<path d="" fill="#000000" transform="translate(0,0)"/>
<path d="" fill="#000000" transform="translate(0,0)"/>
<path d="" fill="#000000" transform="translate(0,0)"/>
<path d="" fill="#000000" transform="translate(0,0)"/>
<path d="" fill="#000000" transform="translate(0,0)"/>
<path d="" fill="#000000" transform="translate(0,0)"/>
<path d="" fill="#000000" transform="translate(0,0)"/>
<path d="" fill="#000000" transform="translate(0,0)"/>
<path d="" fill="#000000" transform="translate(0,0)"/>
<path d="" fill="#000000" transform="translate(0,0)"/>
<path d="" fill="#000000" transform="translate(0,0)"/>
<path d="" fill="#000000" transform="translate(0,0)"/>
<path d="" fill="#000000" transform="translate(0,0)"/>
<path d="" fill="#000000" transform="translate(0,0)"/>
<path d="" fill="#000000" transform="translate(0,0)"/>
<path d="" fill="#000000" transform="translate(0,0)"/>
<path d="" fill="#000000" transform="translate(0,0)"/>
<path d="" fill="#000000" transform="translate(0,0)"/>
<path d="" fill="#000000" transform="translate(0,0)"/>
<path d="" fill="#000000" transform="translate(0,0)"/>
<path d="" fill="#000000" transform="translate(0,0)"/>
<path d="" fill="#000000" transform="translate(0,0)"/>
<path d="" fill="#000000" transform="translate(0,0)"/>
<path d="" fill="#000000" transform="translate(0,0)"/>
<path d="" fill="#000000" transform="translate(0,0)"/>
<path d="" fill="#000000" transform="translate(0,0)"/>
<path d="" fill="#000000" transform="translate(0,0)"/>
<path d="" fill="#000000" transform="translate(0,0)"/>
<path d="" fill="#000000" transform="translate(0,0)"/>
<path d="" fill="#000000" transform="translate(0,0)"/>
<path d="" fill="#000000" transform="translate(0,0)"/>
<path d="" fill="#000000" transform="translate(0,0)"/>
<path d="" fill="#000000" transform="translate(0,0)"/>
<path d="" fill="#000000" transform="translate(0,0)"/>
<path d="" fill="#000000" transform="translate(0,0)"/>
<path d="" fill="#000000" transform="translate(0,0)"/>
<path d="" fill="#000000" transform="translate(0,0)"/>
<path d="" fill="#000000" transform="translate(0,0)"/>
<path d="" fill="#000000" transform="translate(0,0)"/>
<path d="" fill="#000000" transform="translate(0,0)"/>
<path d="" fill="#000000" transform="translate(0,0)"/>
<path d="" fill="#000000" transform="translate(0,0)"/>
<path d="" fill="#000000" transform="translate(0,0)"/>
<path d="" fill="#000000" transform="translate(0,0)"/>
<path d="" fill="#000000" transform="translate(0,0)"/>
<path d="" fill="#000000" transform="translate(0,0)"/>
<path d="" fill="#000000" transform="translate(0,0)"/>
<path d="" fill="#000000" transform="translate(0,0)"/>
<path d="" fill="#000000" transform="translate(0,0)"/>
<path d="" fill="#000000" transform="translate(0,0)"/>
<path d="" fill="#000000" transform="translate(0,0)"/>
<path d="" fill="#000000" transform="translate(0,0)"/>
<path d="" fill="#000000" transform="translate(0,0)"/>
<path d="" fill="#000000" transform="translate(0,0)"/>
<path d="" fill="#000000" transform="translate(0,0)"/>
<path d="" fill="#000000" transform="translate(0,0)"/>
<path d="" fill="#000000" transform="translate(0,0)"/>
<path d="" fill="#000000" transform="translate(0,0)"/>
<path d="" fill="#000000" transform="translate(0,0)"/>
<path d="" fill="#000000" transform="translate(0,0)"/>
<path d="" fill="#000000" transform="translate(0,0)"/>
<path d="" fill="#000000" transform="translate(0,0)"/>
<path d="" fill="#000000" transform="translate(0,0)"/>
<path d="" fill="#000000" transform="translate(0,0)"/>
<path d="" fill="#000000" transform="translate(0,0)"/>
<path d="" fill="#000000" transform="translate(0,0)"/>
<path d="" fill="#000000" transform="translate(0,0)"/>
<path d="" fill="#000000" transform="translate(0,0)"/>
<path d="" fill="#000000" transform="translate(0,0)"/>
<path d="" fill="#000000" transform="translate(0,0)"/>
<path d="" fill="#000000" transform="translate(0,0)"/>
<path d="" fill="#000000" transform="translate(0,0)"/>
<path d="" fill="#000000" transform="translate(0,0)"/>
<path d="" fill="#000000" transform="translate(0,0)"/>
<path d="" fill="#000000" transform="translate(0,0)"/>
<path d="" fill="#000000" transform="translate(0,0)"/>
<path d="" fill="#000000" transform="translate(0,0)"/>
<path d="" fill="#000000" transform="translate(0,0)"/>
<path d="" fill="#000000" transform="translate(0,0)"/>
<path d="" fill="#000000" transform="translate(0,0)"/>
<path d="" fill="#000000" transform="translate(0,0)"/>
<path d="" fill="#000000" transform="translate(0,0)"/>
<path d="" fill="#000000" transform="translate(0,0)"/>
<path d="" fill="#000000" transform="translate(0,0)"/>
<path d="" fill="#000000" transform="translate(0,0)"/>
<path d="" fill="#000000" transform="translate(0,0)"/>
<path d="" fill="#000000" transform="translate(0,0)"/>
<path d="" fill="#000000" transform="translate(0,0)"/>
<path d="" fill="#000000" transform="translate(0,0)"/>
<path d="" fill="#000000" transform="translate(0,0)"/>
<path d="" fill="#000000" transform="translate(0,0)"/>
<path d="" fill="#000000" transform="translate(0,0)"/>
<path d="" fill="#000000" transform="translate(0,0)"/>
<path d="" fill="#000000" transform="translate(0,0)"/>
<path d="" fill="#000000" transform="translate(0,0)"/>
<path d="" fill="#000000" transform="translate(0,0)"/>
<path d="" fill="#000000" transform="translate(0,0)"/>
<path d="" fill="#000000" transform="translate(0,0)"/>
<path d="" fill="#000000" transform="translate(0,0)"/>
<path d="" fill="#000000" transform="translate(0,0)"/>
<path d="" fill="#000000" transform="translate(0,0)"/>
<path d="" fill="#000000" transform="translate(0,0)"/>
<path d="" fill="#000000" transform="translate(0,0)"/>
<path d="" fill="#000000" transform="translate(0,0)"/>
<path d="" fill="#000000" transform="translate(0,0)"/>
<path d="" fill="#000000" transform="translate(0,0)"/>
<path d="" fill="#000000" transform="translate(0,0)"/>
<path d="" fill="#000000" transform="translate(0,0)"/>
<path d="" fill="#000000" transform="translate(0,0)"/>
<path d="" fill="#000000" transform="translate(0,0)"/>
<path d="" fill="#000000" transform="translate(0,0)"/>
<path d="" fill="#000000" transform="translate(0,0)"/>
<path d="" fill="#000000" transform="translate(0,0)"/>
<path d="" fill="#000000" transform="translate(0,0)"/>
<path d="" fill="#000000" transform="translate(0,0)"/>
<path d="" fill="#000000" transform="translate(0,0)"/>
<path d="" fill="#000000" transform="translate(0,0)"/>
<path d="" fill="#000000" transform="translate(0,0)"/>
<path d="" fill="#000000" transform="translate(0,0)"/>
<path d="" fill="#000000" transform="translate(0,0)"/>
<path d="" fill="#000000" transform="translate(0,0)"/>
<path d="" fill="#000000" transform="translate(0,0)"/>
<path d="" fill="#000000" transform="translate(0,0)"/>
<path d="" fill="#000000" transform="translate(0,0)"/>
<path d="" fill="#000000" transform="translate(0,0)"/>
<path d="" fill="#000000" transform="translate(0,0)"/>
<path d="" fill="#000000" transform="translate(0,0)"/>
<path d="" fill="#000000" transform="translate(0,0)"/>
<path d="" fill="#000000" transform="translate(0,0)"/>
</svg>
